<?xml version="1.0" encoding="UTF-8"?><svg id="a" xmlns="http://www.w3.org/2000/svg" viewBox="0 0 220 227.9" width="220" ><defs><style>.b{fill:#f4f1e9;}.c{fill:#707070;}.d{isolation:isolate;}</style></defs><path class="b" d="M109.9,0C170.6,0,216,37.3,219.8,96.5s-36.7,92.9-109.9,93.5C36.7,190.6,1.8,162.8,0,96.5S49.2,0,109.9,0Z"/><ellipse class="b" cx="169.8" cy="202.96" rx="13" ry="15.5" transform="translate(-36.01 369.28) rotate(-89.03)"/><ellipse class="b" cx="197.57" cy="219.49" rx="8.2" ry="8.8" transform="translate(-25.25 413.31) rotate(-89.03)"/><g class="d"><path class="c" d="M83.4,88.3l-.4-.2c-.1-.1-.1-.2-.2-.3v-.4l.2-.4c.5-.3,.9-.6,1.3-1.1s.7-.9,.9-1.3c.2-.4,.3-.8,.4-1s.1-.7,.2-1.1l-1.6-.1h-3c-.2,.3-.3,.6-.5,.9s-.4,.6-.5,.9h-.2c-.1,.2-.3,.5-.5,.7s-.4,.5-.5,.7l-.1,.1-.2,.1-.1,.2-.3,.3-.2,.2-.1,.1c-.2,.2-.4,.3-.7,.4s-.5,.2-.8,.2l-.4-.2c-.1-.1-.1-.2-.2-.4v-.4l.2-.4,.2-.2,.5-.3v-.1c.4-.3,.7-.7,1.1-1,.3-.4,.6-.7,.9-1.1l.4-.8h-2.8c-.1,0-.2-.1-.3-.1s-.2-.1-.2-.1c-.1-.1-.1-.2-.2-.3v-.4l.2-.4c.7-.1,1.4-.2,2.1-.2s1.4,0,2.1-.1c.1-.2,.2-.4,.2-.5,.1-.2,.1-.4,.1-.6h-.6l-2,.1c-.1,0-.2-.1-.3-.1s-.2-.1-.2-.1c-.1-1-.2-1.9-.3-2.9-.1-1-.1-2-.1-3,0-.1,.1-.2,.1-.3s.1-.2,.2-.3c1.2-.2,2.4-.4,3.6-.4h3.7c.3,.1,.6,.1,.9,.2s.6,.2,.8,.3l.2,.4-.1,1.6c-.1,.7-.2,1.4-.2,2.1s-.2,1.4-.5,2l-.2,.1-.2,.3c-.5,.2-1.1,.2-1.7,.2h-1.8v.6c-.1,.2-.1,.4-.2,.6h2.2l2.3,.1c.1,0,.2,.1,.4,.1s.2,.1,.3,.2c.1,.2,.2,.5,.3,.8v.9c0,.5-.2,1.1-.4,1.8-.3,.7-.6,1.4-1.2,2h-.1l-.3,.4h-.1l-.1,.2-.3,.3-.3,.3-.2,.1v.1l-.1,.1c-.1,.1-.2,.1-.4,.2s0-.2-.1-.3Zm-2.3-12.7h0l-.1-1.4h-.4l-1.8,.1v1.4h.5l1.8-.1Zm0,2.6v-1.1h-.1l-2.1,.1v1.1h.4c.3,0,.6-.1,.9-.1s.6,0,.9,0Zm3.9-2.7l.1-1.2c-.2-.1-.4-.1-.7-.2h-1.9v.1l.1,1.3h.1l.5-.1,1.8,.1h0Zm-.3,2.8h0l.1-1.1-1.5-.1h-.7v1.2h2.1Z"/><path class="c" d="M97.5,79.8l-.4-.2c-.2-.3-.3-.6-.4-.9s-.2-.6-.2-1c0-.1,.1-.2,.1-.3s.1-.2,.1-.3c.1-.1,.2-.1,.3-.2s.2,0,.4,0l.4,.2c.1,.3,.2,.7,.3,1s.2,.7,.3,1l-.2,.4c-.1,.1-.2,.1-.3,.2s-.3,.1-.4,.1Zm1.7,8.2l-.4-.2c-.2-.3-.2-.6-.3-1v-1.5l-.1-.7v-.6l.1-.7v-1.3c0-.5,.1-1.1,.1-1.7,.1-.6,.1-1.1,0-1.7l-.1-1.4,.1-2.3-.1-.9c0-.1,.1-.2,.1-.3s.1-.2,.1-.3c.1-.1,.2-.1,.3-.2h.4l.4,.2c.2,.3,.2,.7,.3,1.1v1.3l-.1,1.9,.1,.8v1.6l-.2,2.1v1.4l-.1,.8,.1,1.5v1.5l-.2,.4c-.1,.1-.2,.1-.3,.2s-.1,.1-.2,0Zm1.8-8.4l-.4-.2c-.1-.1-.1-.2-.2-.3s0-.2,0-.4c.1-.3,.3-.6,.4-.9s.3-.6,.5-.8c.1-.1,.2-.1,.3-.2s.2,0,.4,0l.4,.2c.1,.1,.1,.2,.2,.3s0,.3,0,.4c-.1,.3-.3,.5-.4,.8s-.2,.5-.4,.8c-.1,.1-.2,.2-.4,.3-.1,0-.3,0-.4,0Zm9.7,8.1c-.7-.1-1.4-.1-2.1-.2s-1.4,0-2.2,0l-.7,.1h-2.7c-.1,0-.2-.1-.3-.1s-.2-.1-.3-.1c-.1-.1-.1-.2-.2-.3s0-.2,0-.4l.2-.4c.2-.2,.5-.2,.8-.2h2.4l.5-.1c0-.6,.1-1.1,.1-1.6v-1.6h-1.2l-.7,.1-.4-.2c-.1-.1-.1-.2-.2-.3s0-.2,0-.4l.2-.4c.3-.2,.7-.3,1.1-.3h1.2v-2.5h-1.1l-.5,.1h-.5c-.2,.4-.3,.8-.4,1.2-.1,.4-.3,.8-.5,1.2-.1,.1-.2,.1-.3,.2s-.3,0-.4,0l-.4-.2c-.1-.1-.1-.2-.2-.3s0-.2,0-.4c.4-1,.8-2,1.1-3s.5-2.1,.6-3.2c.1-.1,.2-.1,.3-.2s.2,0,.4,0l.4,.2c.2,.2,.2,.4,.2,.7v.7l-.3,1.5h1.9v-.6l.1-1-.1-1.1c0-.1,.1-.2,.1-.3s.1-.2,.1-.3c.1-.1,.2-.1,.3-.2s.2,0,.4,0l.4,.2c.2,.3,.2,.6,.2,1v2.2h1.9l.4,.2c.1,.1,.1,.2,.2,.3s0,.2,0,.4l-.2,.4c-.2,.2-.5,.2-.7,.3-.3,0-.6,0-.8,.1l-.9-.1v2.5h1.6l.4,.2c.1,.1,.1,.2,.2,.3s0,.2,0,.4l-.2,.4c-.3,.2-.6,.3-.9,.3h-1v1.6c0,.5,0,1.1-.1,1.6,.5,.1,1.1,.1,1.8,.1s1.3,.1,1.8,.3c.1,.1,.1,.2,.2,.3s0,.3,0,.4l-.2,.4c-.1,.1-.2,.1-.3,.2-.2-.2-.3-.1-.5-.1Z"/><path class="c" d="M125.1,86.7c-.3-.1-.5-.2-.7-.4s-.4-.3-.6-.5l-.1-.1-.4-.5h-.1c-.3-.4-.6-.9-.7-1.4s-.2-1.1-.1-1.7c.1-.7,.3-1.3,.5-2s.5-1.2,.9-1.8h-.5c-.7,.1-1.4,.1-2.1,.2s-1.4,.1-2.1,.1c-.1,0-.2-.1-.3-.1s-.2-.1-.3-.1c-.1-.1-.1-.2-.2-.3s0-.2,0-.4l.2-.4c1.2-.2,2.4-.3,3.6-.4s2.4-.2,3.7-.2l.4,.2c.1,.1,.1,.2,.2,.3s.1,.3,0,.4l-.2,.4-.4,.3v.1h-.1c-.5,.7-.9,1.5-1.2,2.2s-.5,1.6-.4,2.6c.1,.2,.1,.5,.3,.7s.3,.4,.4,.6h.1l.2,.3,.8,.5v.1h.1c.1,.1,.1,.2,.2,.3s0,.2,0,.4l-.2,.4c-.1,.1-.2,.1-.3,.2s-.5,0-.6,0Zm3.1-7.2l-.4-.2c-.2-.3-.3-.6-.5-.9s-.3-.6-.2-1l.2-.4c.1-.1,.2-.2,.3-.2h.4l.4,.2c.1,.3,.3,.6,.4,.9s.3,.6,.3,1l-.2,.4c-.1,.1-.2,.1-.3,.2s-.2,0-.4,0Zm1.9-1l-.4-.2c-.2-.2-.3-.5-.5-.7s-.2-.5-.2-.8l.2-.4c.1-.1,.2-.1,.3-.2s.2,0,.4,0l.4,.2c.2,.2,.3,.5,.4,.7s.2,.5,.2,.8l-.2,.4c-.1,.1-.2,.1-.3,.2s-.2,.1-.3,0Z"/><path class="c" d="M142.8,86.8c-.3-.1-.7-.1-1-.2s-.6-.3-.9-.6c-.3-.4-.6-.9-.8-1.4-.2-.5-.4-1-.5-1.5-.2,0-.5-.1-.7-.1-.2-.1-.4-.1-.6-.3-.1-.1-.1-.2-.2-.3s0-.2,0-.4l.2-.4c.1-.1,.2-.1,.3-.2s.3,0,.4,0l.4,.1v-1.8l.1-.7h-.1l-.7,.1-.4-.2c-.1-.1-.1-.2-.2-.3s0-.2,0-.4l.2-.4c.2-.1,.4-.2,.6-.2s.5-.1,.7-.1c.1-.5,.2-1,.4-1.4s.4-.9,.7-1.3c.1-.1,.2-.1,.3-.2s.2,0,.4,0l.4,.2c.1,.1,.1,.2,.2,.3s0,.3,0,.4c-.2,.3-.3,.6-.4,.9s-.3,.6-.3,1c.3,0,.6,.1,.9,.1s.6,.1,.9,.3c.1,.1,.1,.2,.2,.3s0,.3,0,.4l-.2,.4c-.1,.1-.2,.1-.3,.2s-.2,0-.4,0c-.2-.1-.4-.1-.6-.2h-.7l-.1,2v.5h.3c.3-.1,.6-.2,.9-.3,.3-.1,.6-.2,1-.2l.4,.2c.1,.1,.1,.2,.2,.3s0,.2,0,.4l-.2,.4c-.4,.2-.7,.3-1.1,.5-.4,.1-.8,.2-1.2,.3v.2c.1,.3,.2,.7,.4,1s.3,.6,.5,.9c.2,.1,.3,.1,.5,.2s.4,.1,.6,.1c.3-.1,.7-.2,1-.4,.3-.2,.6-.4,.8-.7,.3-.4,.6-.7,.8-1.1,.2-.4,.4-.8,.4-1.3v-.4l.2-.4c.1-.1,.2-.1,.4-.2h.4l.4,.2c.1,.1,.2,.3,.2,.4v.5c-.1,.7-.3,1.3-.7,1.9-.4,.6-.8,1.1-1.3,1.7-.4,.4-.9,.7-1.3,.9-.7,.2-1.2,.3-1.8,.3Z"/></g><g class="d"><path class="c" d="M44.4,117l-.4-.2c-.1-.1-.1-.2-.2-.3s-.1-.2-.1-.4v-2.1l.2-3.4h-.1l-.2,.4h-.1l-.1,.2-.4,.4-.3,.3-1.1,1-.1,.1-.5,.4h-.5l-.4-.2c-.1-.1-.1-.2-.2-.3s0-.3,0-.4l.2-.4,.3-.3c.5-.5,1.1-1,1.5-1.5,.5-.5,.9-1.1,1.2-1.7h-.2c-.4,.1-.8,.1-1.2,.2s-.8,.1-1.2,.1c-.1,0-.2-.1-.3-.1s-.2-.1-.2-.1c-.1-.1-.1-.2-.2-.3s0-.2,0-.4l.2-.4c.6-.2,1.2-.3,1.8-.3,.6-.1,1.2-.1,1.9-.2v-2h-.1c-.3,.1-.6,.2-.9,.4-.3,.1-.6,.2-.9,.3l-.4-.2c-.1-.1-.1-.2-.2-.3s0-.2,0-.4l.2-.4c.6-.3,1.2-.6,1.8-.9s1.2-.6,1.8-.9l.1-.2c.1-.1,.2-.1,.3-.2s.2,0,.4,0l.4,.2c.1,.1,.1,.2,.2,.3s0,.2,0,.4c0,.1-.1,.2-.1,.3s-.1,.2-.2,.3l-1.2,.7v.1c.2,.4,.2,.8,.2,1.2v1.3h.2c.4-.1,.7-.1,1.1-.1h1.2l.4,.2c.1,.1,.1,.2,.2,.3s0,.3,0,.4l-.2,.4c-.4,.2-.8,.3-1.3,.2-.5,0-.9,0-1.4,.1v.1l.3,.3,.4,.3c.2,.3,.4,.5,.7,.7,.3,.2,.5,.4,.8,.5l.4,.5v.5l-.2,.4c-.1,.1-.2,.1-.3,.2s-.3,0-.4,0c-.3-.2-.7-.4-1-.6s-.6-.5-.9-.7l-.1,4.4v1.4c0,.1-.1,.2-.1,.3s-.1,.2-.2,.3c-.1,.1-.2,.1-.3,.2s.1-.3,0-.4Zm5.9-4.5l-.4-.2c-.2-.4-.3-.8-.3-1.3v-3.3c0-.4,.1-.8,.1-1.2s.1-.8,.3-1.2c.1-.1,.2-.1,.3-.2h.4l.4,.2c.1,.2,.2,.3,.2,.5v.6c-.1,.4-.1,.8-.1,1.2v2.1l-.1,.5,.1,1.7-.3,.4c-.1,.1-.2,.1-.3,.2s-.2,.1-.3,0Zm3.9,4.4c-.1,0-.2-.1-.3-.1s-.2-.1-.3-.1c-.1-.1-.1-.2-.2-.3s0-.3,0-.4c0-.6,0-1.3,.1-1.9,0-.6,0-1.3,.1-1.9v-2.9l-.1-2.3v-.9h0v-2.4c0-.1,.1-.2,.1-.3s.1-.2,.1-.3c.1-.1,.2-.1,.3-.2s.2,0,.4,0l.4,.2,.2,.4v3.5h0l.1,2.1v3.1c-.1,.8-.1,1.5-.1,2.3,0,.7-.1,1.5-.3,2.2-.1,.1-.2,.1-.3,.2,0-.1-.1,0-.2,0Z"/><path class="c" d="M74.5,117.4c-.2-.1-.4-.2-.6-.3-.2-.1-.4-.2-.6-.3-.1-.1-.1-.2-.2-.3s0-.2,0-.4l.2-.4c.1-.1,.2-.1,.3-.2h.4v-1.2c-.1-.3-.1-.7-.1-1.1s0-.7-.1-1.1v-.9h-3.2v3.9c0,.2,0,.4-.1,.6,0,.2-.1,.4-.2,.6-.1,.1-.2,.1-.3,.2s-.2,0-.4,0l-.4-.2c-.1-.1-.1-.2-.2-.3,0-.1-.1-.2-.1-.3l.1-.7v-3.6h-.3c-.5,0-1.1,.1-1.6,.1-.5,.1-1,.1-1.6,.1-.2,.8-.4,1.5-.6,2.2s-.6,1.4-1,2.1c-.1,.1-.2,.1-.3,.2-.1,.1-.2,.1-.4,0l-.4-.2c-.1-.1-.1-.2-.2-.3v-.4c.6-1.1,1-2.2,1.3-3.4,.3-1.2,.5-2.4,.5-3.6v-1.6l.1-1.1v-1.7l-.1-.9,.2-.4,.1-.1c0-.1,0-.2,.1-.2s.1-.2,.1-.2c.7-.2,1.4-.3,2.2-.4s1.5-.1,2.2-.2h4l1.1,.1h.4l.4,.2c.1,.1,.1,.2,.2,.3s0,.3,0,.4v.9l.1,2.1h0v1.9l-.1,1.7v2.1h0v1.8l.1,.9v1.6c-.1,.2-.1,.5-.1,.7s-.1,.5-.2,.6-.2,.1-.4,.2-.1,.5-.3,.5Zm-5.3-7.5v-2.2h-1l-1.8,.2h-.2c0,.4,0,.8-.1,1.2s-.1,.8-.1,1.2h.2c.5-.1,1-.1,1.5-.2s1-.2,1.5-.2Zm-.1-3.7v-.2l-.1-2.5v-.2h-.8l-2.1,.2v.4h0v2.4h.7c.4-.1,.7-.1,1.1-.1,.5,0,.8,0,1.2,0Zm4.9-.3v-.9l-.1-1.9h-3.5v.1l.2,2.8h.1c.5-.1,1.1-.1,1.6-.1,.6,0,1.2,0,1.7,0Zm-.1,3.9v-.5l.1-1.9h-1.5l-1.9,.2v2.2h3.3Z"/><path class="c" d="M91.1,115.7c-.3-.1-.5-.2-.7-.4s-.4-.3-.6-.5l-.1-.1-.4-.5h-.1c-.3-.4-.6-.9-.7-1.4s-.2-1.1-.1-1.7c.1-.7,.3-1.3,.5-2s.5-1.2,.9-1.8h-.5c-.7,.1-1.4,.1-2.1,.2s-1.4,.1-2.1,.1c-.1,0-.2-.1-.3-.1s-.2-.1-.3-.1c-.1-.1-.1-.2-.2-.3s0-.2,0-.4l.2-.4c1.2-.2,2.4-.3,3.6-.4s2.4-.2,3.7-.2l.4,.2c.1,.1,.1,.2,.2,.3,.1,.1,.1,.3,0,.4l-.2,.4-.4,.3v.1h-.1c-.5,.7-.9,1.5-1.2,2.2-.3,.8-.5,1.6-.4,2.6,.1,.2,.1,.5,.3,.7,.1,.2,.3,.4,.4,.6h.1l.2,.3,.8,.5v.1h.1c.1,.1,.1,.2,.2,.3s0,.2,0,.4l-.2,.4c-.1,.1-.2,.1-.3,.2-.4,0-.5,0-.6,0Zm3.2-7.2l-.4-.2c-.2-.3-.3-.6-.5-.9s-.3-.6-.2-1l.2-.4c.1-.1,.2-.2,.3-.2h.4l.4,.2c.1,.3,.3,.6,.4,.9s.3,.6,.3,1l-.2,.4c-.1,.1-.2,.1-.3,.2s-.3,0-.4,0Zm1.9-1l-.4-.2c-.2-.2-.3-.5-.5-.7-.1-.2-.2-.5-.2-.8l.2-.4c.1-.1,.2-.1,.3-.2s.2,0,.4,0l.4,.2c.2,.2,.3,.5,.4,.7s.2,.5,.2,.8l-.2,.4c-.1,.1-.2,.1-.3,.2s-.2,.1-.3,0Z"/><path class="c" d="M109.9,111.3l-.4-.2-.8-1.6h-.2c-.5,.1-1,.2-1.5,.3s-1,.2-1.6,.3l-.4-.2c-.1-.1-.1-.2-.2-.3s0-.2,0-.4l.2-.4c.5-.2,1-.3,1.5-.5s1-.2,1.6-.3v-.2l-.8-1.4h-.2c-.4,.1-.7,.1-1.1,.2s-.7,.1-1.1,.2l-.4-.2c-.1-.1-.1-.2-.2-.3s0-.2,0-.4l.2-.4c.3-.2,.7-.3,1-.3,.4-.1,.7-.1,1.1-.2v-.1c-.1-.2-.2-.4-.3-.6-.1-.2-.2-.4-.2-.7l.2-.4c.1-.1,.2-.1,.3-.2s.2,0,.4,0l.4,.2c.2,.2,.3,.5,.4,.7s.2,.5,.4,.7h.2l.8-.1,.4,.2c.1,.1,.1,.2,.2,.3s0,.2,0,.4l-.2,.4c-.1,.1-.2,.1-.3,.2-.1,0-.2,.1-.3,.1v.1l.6,1.3h.2c.3-.1,.6-.1,.9-.2,.3,0,.6-.1,1-.1l.4,.2c.1,.1,.1,.2,.2,.3s0,.2,0,.4l-.2,.4c-.2,.2-.5,.2-.8,.3s-.6,.1-.9,.1v.2c.1,.2,.2,.4,.4,.6,.1,.2,.2,.5,.2,.8l-.2,.4c-.1,.1-.2,.1-.3,.2s-.4,.2-.6,.2Zm-2.3,5.7c-.2,0-.4-.1-.5-.2-.2-.1-.3-.2-.5-.4l-.6-.7c-.3-.4-.5-.8-.8-1.2-.2-.4-.4-.9-.4-1.4l.2-.4c.1-.1,.2-.1,.3-.2s.2,0,.4,0l.4,.2,1,1.9h.1l.3,.4,.2,.2,.6,.5c.1,.1,.1,.2,.2,.3s0,.2,0,.4l-.2,.4c-.1,.1-.2,.1-.3,.2-.2,0-.3,0-.4,0Z"/><path class="c" d="M125.1,116.1c-.4,0-.7-.1-1-.3s-.6-.4-.9-.6c-.2-.2-.3-.5-.4-.8s-.1-.6-.1-.9c0-.2,.1-.4,.2-.5s.2-.3,.3-.4c.4-.3,.8-.6,1.3-.8s1-.3,1.5-.3v-.3l-.2-1.5h-2.1c-.1,0-.3-.1-.4-.1s-.3-.1-.4-.2-.1-.2-.2-.3,0-.2,0-.4l.2-.4c.1-.1,.2-.1,.3-.2s.3,0,.4,0l.2,.1h1.8v-.1l-.3-1.6h-.5l-.9,.1c-.1,0-.2-.1-.3-.1s-.2-.1-.3-.1c-.1-.1-.1-.2-.2-.3s0-.2,0-.4l.2-.4c.3-.1,.6-.2,.9-.2s.7-.1,1-.1v-.3l-.1-.9c0-.1,.1-.2,.1-.3s.1-.2,.1-.3c.1-.1,.2-.1,.3-.2s.2,0,.4,0l.4,.2c.1,.3,.2,.6,.2,.9s0,.7,.1,1c.2,0,.5,.1,.7,.1s.5,.1,.7,.3c.1,.1,.1,.2,.2,.3s0,.2,0,.4l-.2,.4c-.1,.1-.2,.2-.4,.2h-.4l-.4-.1v.1l.2,1.3h.4c.2-.1,.4-.1,.6-.1h.6l.4,.2c.1,.1,.1,.2,.2,.3s0,.2,0,.4l-.2,.4c-.3,.1-.5,.2-.8,.3s-.6,.1-.9,.1v.3c.1,.3,.1,.6,.2,1s.1,.7,.2,1c.3,.2,.6,.3,.9,.5s.6,.3,.9,.5c.1,.1,.1,.2,.2,.4s.1,.3,0,.4l-.2,.4c-.1,.1-.2,.1-.3,.2s-.2,0-.4,0l-1.2-.7c-.1,.3-.1,.6-.2,.9s-.2,.6-.4,.8l-.2,.2-.2,.1v.1c-.2,.2-.4,.3-.6,.4s-.7-.1-1-.1Zm.3-1.7l.4-.4,.2-.9h-.2c-.3,0-.6,.1-.8,.2s-.5,.2-.7,.4v.1l.2,.5c.1,.1,.3,.2,.4,.2s.3,.1,.4,.1l.1-.2Z"/><path class="c" d="M145.3,116c-.1,0-.2-.1-.3-.1s-.2-.1-.3-.1c-.1-.1-.1-.2-.2-.3s0-.2,0-.4c.2-.3,.3-.7,.4-1s.2-.7,.2-1.1h-.1l-.7,.1c-.2,0-.5-.1-.7-.2s-.4-.2-.6-.4l-.2-.2c-.2-.3-.4-.6-.4-.9s-.1-.7-.1-1.1c0-.2,.1-.5,.2-.7s.2-.4,.4-.6c.3-.3,.6-.5,1-.6s.7-.2,1.2-.1l.3,.1v-1.3h-.4c-1.1,.1-2.1,.2-3.2,.3s-2.1,.3-3.1,.6c-.1,0-.2-.1-.3-.1s-.2-.1-.3-.1c-.1-.1-.1-.2-.2-.3s0-.2,0-.4l.2-.4c1.1-.3,2.3-.6,3.5-.7s2.4-.3,3.6-.4v-.4l-.2-1.6,.2-.4c.1-.1,.2-.1,.3-.2s.2,0,.4,0l.4,.2c.2,.3,.3,.7,.3,1.1s.1,.8,.2,1.2h2.9l.4,.2c.1,.1,.1,.2,.2,.3s.1,.3,0,.4l-.2,.4c-.1,.1-.3,.2-.4,.2h-2.8v.1h0v2.5l-.1,.9,.1,.3v1.8c-.1,.6-.2,1.1-.4,1.7s-.4,1.1-.7,1.6c-.1,.1-.2,.1-.3,.2s-.1-.1-.2-.1Zm-.5-4.6c.1-.2,.2-.4,.3-.6s.1-.4,.1-.6c0-.1-.1-.1-.1-.2s-.1-.1-.2-.2h-.5l-.5,.4v.4c0,.1,.1,.2,.1,.3s.1,.2,.2,.3h.1v.1h.5v.1Z"/><path class="c" d="M160.2,115.6l-.4-.2c-.1-.1-.1-.2-.2-.3s0-.2,0-.4c.6-.8,1-1.6,1.3-2.4s.4-1.8,.4-2.8c0-.2-.1-.3-.1-.5s-.2-.3-.3-.4c-.1-.1-.2-.1-.3-.1h-.4l-.9,.1c-.2,.7-.3,1.3-.4,2s-.3,1.3-.5,1.9c-.1,.1-.2,.1-.3,.2s-.3,0-.4,0l-.4-.2c-.1-.1-.1-.2-.2-.3s0-.2,0-.4c.2-.4,.3-.9,.4-1.3s.2-.9,.3-1.4h-.1c-.2,.1-.4,.1-.6,.2s-.4,.1-.7,.1l-.4-.2c-.1-.1-.1-.2-.2-.3s0-.2,0-.4l.2-.4c.3-.2,.7-.3,1-.4s.7-.2,1.1-.3c.1-.4,.2-.8,.2-1.2s.1-.8,.3-1.2c.1-.1,.2-.1,.3-.2s.2-.1,.4,0l.4,.2c.1,.1,.1,.2,.2,.4s0,.3,0,.4c0,.2,0,.5-.1,.7s0,.4-.1,.6h.1l1-.1c.2,0,.4,.1,.6,.1s.4,.2,.5,.3l.3,.3c.3,.4,.5,.8,.5,1.3s.1,1,.1,1.5c-.1,.9-.2,1.7-.5,2.5s-.8,1.5-1.3,2.2c-.1,.1-.2,.1-.3,.2s-.4,.2-.5,.2Zm8.9-4.6c-.1,0-.2-.1-.3-.1s-.2-.1-.3-.1c-.3-.5-.5-1-.9-1.4s-.7-.9-1.1-1.3l-1.4-1.2c-.1-.1-.1-.2-.2-.3s0-.2,0-.4l.2-.4c.1-.1,.2-.1,.3-.2s.2,0,.4,0c.3,.2,.7,.4,1,.7s.6,.6,.9,.8l.5,.6,.1,.2h.1c.3,.4,.5,.8,.8,1.2s.4,.8,.5,1.3l-.2,.4c-.1,.1-.2,.1-.3,.2s0-.1-.1,0Z"/><path class="c" d="M178,111.8l-.3-.1c-.1-.1-.1-.2-.2-.3s-.1-.2-.1-.3c.1-.8,.3-1.5,.5-2.1s.7-1.2,1.2-1.9l.8-.7c.2,0,.4-.1,.6-.3,.2-.1,.4-.3,.5-.4s.1-.3,.1-.4v-.4c-.1-.2-.1-.4-.2-.6s-.2-.3-.4-.5c-.3-.3-.7-.5-1.2-.6-.4-.1-.9-.1-1.4,0-.1,.1-.3,.1-.5,.2s-.4,.2-.5,.3l-.2,.3c-.1,.1-.2,.1-.3,.1h-.3l-.4-.1c-.1-.1-.1-.2-.1-.3v-.4c0-.1,0-.2,.1-.3,.1-.1,.1-.2,.1-.3,.4-.3,.8-.6,1.2-.7,.4-.2,.9-.3,1.4-.3s1,.1,1.4,.2,.8,.3,1.2,.5l.4,.3,.3,.3c.3,.3,.5,.6,.6,1s.2,.8,.2,1.2c0,.2,0,.4-.1,.6s-.2,.3-.2,.5l-.1,.1-.1,.1c-.2,.2-.5,.4-.8,.6s-.6,.4-.8,.6v.1l-.2,.1c-.4,.7-.7,1.2-.9,1.7-.2,.4-.4,1.1-.6,2-.1,.1-.2,.1-.3,.2s-.3,0-.4,0Zm-1.1,4l-.6-.5c-.1-.1-.1-.2-.1-.4,0-.1-.1-.3-.1-.4l.1-.2,.1-.5,.2-.4c.2-.1,.4-.1,.6-.1h.6c.2,.1,.3,.1,.4,.2s.2,.1,.3,.3c.1,.2,.1,.4,.1,.6v.7l-.3,.4h-.1v.1c-.2,.1-.4,.2-.7,.3,.1,0-.2,0-.5-.1Z"/></g></svg>