<?xml version="1.0" encoding="UTF-8"?>
<svg id="_レイヤー_2" data-name="レイヤー 2" xmlns="http://www.w3.org/2000/svg" viewBox="0 0 300 325.85">
  <defs>
    <style>
      .cls-1, .cls-2 {
        fill: #b48a76;
      }

      .cls-2 {
        opacity: .97;
      }
    </style>
  </defs>
  <g id="_レイヤー_1-2" data-name="レイヤー 1">
    <g>
      <g>
        <path class="cls-1" d="M14.12,320.74c2.31,0,4.63-.12,7.18-.49v4.51H0c.37-2.56.73-5.11.73-7.31v-71.1c0-2.19-.12-3.78-.61-6.09h20.58v4.87c-2.44-.49-4.38-.61-7.31-.61h-7.91v33.12h7.91c1.58,0,3.65,0,6.09-.61v5.36c-3.04-.37-5.48-.49-7.31-.49h-6.7v38.84h8.64Z"/>
        <path class="cls-1" d="M27.64,240.26h9.74c.97,17.29,8.64,33.48,11.93,49.92v-.12c2.68-16.07,11.93-30.8,12.18-49.8h9.62c-.36,2.68-.73,5.36-.73,7.43v69.76c0,2.19.36,4.75.73,7.31h-6.09c.37-2.56.73-5.11.73-7.31v-70.13c-4.02,18.87-13.88,40.06-14.73,59.66h-3.29c-.73-19.6-11.08-40.79-14.61-59.9v70.37c0,1.95.24,3.9.61,5.97l.24,1.34h-6.21c.61-2.19.85-4.63.85-7.31v-69.76c0-2.19-.36-4.75-.98-7.43Z"/>
        <path class="cls-1" d="M76.95,302.23v-40.3c0-17.41,3.29-23.26,13.64-23.26s13.39,5.84,13.39,23.26v40.3c0,17.9-3.29,23.62-13.39,23.62s-13.64-5.72-13.64-23.62ZM99.47,302.35v-39.93c0-13.15-.73-19.24-8.89-19.24s-9.13,6.09-9.13,19.24v39.93c0,13.03.73,19.12,9.13,19.12s8.89-6.09,8.89-19.12Z"/>
        <path class="cls-1" d="M126.26,240.26h14.85c10.84,0,12.78,15.83,12.78,42.73v1.1c0,14.49.12,40.67-13.15,40.67h-14.49c.49-2.56.73-4.99.73-7.31v-69.76c0-2.19-.24-4.75-.73-7.43ZM139.17,320.74c8.16,0,10.11-12.91,10.11-37.26,0-18.63,0-38.96-9.62-38.96h-7.92v76.22h7.43Z"/>
        <path class="cls-1" d="M174.84,320.74c2.31,0,4.63-.12,7.18-.49v4.51h-21.31c.49-2.56.73-5.11.73-7.31v-71.1c0-2.19-.12-3.78-.61-6.09h20.58v4.87c-2.43-.49-4.38-.61-7.3-.61h-7.91v33.12h7.91c1.58,0,3.65,0,6.09-.61v5.36c-3.04-.37-5.48-.49-7.31-.49h-6.7v38.84h8.64Z"/>
        <path class="cls-1" d="M208.93,245.62c-2.07-1.7-4.26-2.68-7.18-2.68-7.18,0-10.35,5.84-10.35,13.51,0,6.94,2.68,11.2,8.16,19.12,7.43,10.84,12.18,18.02,12.18,29.1s-4.75,21.19-15.46,21.19c-4.14,0-7.06-1.46-9.01-3.9v-3.29c2.43,2.31,4.99,3.17,8.16,3.17,9.13,0,11.81-6.82,11.81-15.46,0-10.23-3.77-16.31-10.47-26.18-5.48-7.67-9.98-14.49-9.98-24.11,0-10.47,5.36-17.41,14.12-17.41,3.41,0,6.09,1.1,8.04,3.04v3.89Z"/>
        <path class="cls-1" d="M217.57,240.26h6.21c-.49,2.68-.73,5.23-.73,7.43v69.76c0,2.31.24,4.87.73,7.31h-6.21c.49-2.56.97-5.11.97-7.31v-69.76c0-2.07-.49-4.75-.97-7.43Z"/>
        <path class="cls-1" d="M257.63,246.59c-2.07-2.07-6.09-3.65-9.98-3.65-10.96,0-11.69,9.25-11.69,19.48v45.17c0,8.64,1.95,13.88,9.13,13.88,7.55,0,8.65-5.72,8.65-8.04v-20.7c0-2.56-.49-6.21-1.1-9.86h6.33c-.73,3.53-.97,6.94-.97,9.86v29.46c-1.22-.12-2.92.61-4.63,1.34-2.31,1.1-5.36,2.31-9.01,2.31-8.65,0-13.03-5.11-13.03-20.09v-42.61c0-16.19,3.77-24.47,15.58-24.47,5.48,0,8.64,1.7,10.71,4.02v3.9Z"/>
        <path class="cls-1" d="M265.18,240.26h9.37v1.46c0,10.84,6.94,28.98,11.81,40.42,2.56,5.72,4.75,12.3,6.58,17.41l1.83,5.23v-57.1c0-2.43-.24-4.99-.85-7.43h6.09c-.61,2.68-.73,5.11-.73,7.43v71.1c.12,1.7.24,3.53.73,5.97h-7.55c.37-1.46.49-2.68.49-3.9,0-11.81-5.97-25.69-9.74-35.06-2.43-5.97-8.4-18.63-12.91-38.96v70.62c0,2.31.12,4.75.49,7.31h-5.72c.61-2.19.85-4.75.85-7.31v-71.1c-.12-2.19-.24-3.78-.73-6.09Z"/>
      </g>
      <g>
        <g>
          <path class="cls-2" d="M125.12,110.79v69.83h15.54c4.16,0,8.32-.22,12.92-.88v8.1h-38.31c.66-4.6,1.31-9.19,1.31-13.13V46.87c0-3.94-.22-6.79-1.09-10.94h36.99v8.76c-4.38-.88-7.88-1.09-13.13-1.09h-14.23v59.54"/>
          <path class="cls-1" d="M119.21,71.09c1.63-.37,3.26-.74,4.89-1.11-2.45,27.87,14.57,42.46,19.44,64.35l2.02-8.87c4.82-28.89,21.45-55.38,21.89-89.53h17.29c-.66,4.81-1.31,9.63-1.31,13.35v125.42c0,3.94.66,8.54,1.31,13.13h-10.94c.66-4.6,1.31-9.19,1.31-13.13V48.62c-7.22,33.93-27.6,72.36-29.13,107.6h-4.86c-.37-9.64-1.46-15.31-2.43-19.46-3.44-14.62-17.38-32.8-19.46-53.51-.54-5.35-.24-9.72,0-12.16Z"/>
        </g>
        <path class="cls-1" d="M150.54,218.9c-43.19,0-55.68-12.51-55.68-55.77V59.69c0-21.87,3.58-35.18,11.61-43.16,8.12-8.07,21.71-11.67,44.07-11.67,41.84,0,54.59,12.81,54.59,54.83v103.44c0,43.26-12.25,55.77-54.59,55.77ZM150.54,6.7c-42.35,0-45.41,20.49-45.41,54.24v102.51c0,18.99,1.13,30.96,7.12,39.8,6.61,9.77,18.42,14.13,38.29,14.13s30.9-4.37,37.37-14.18c5.82-8.81,6.95-21.25,6.95-39.75V60.94c0-19.09-1.11-31.13-6.95-40.02-6.46-9.84-17.99-14.22-37.38-14.22Z"/>
      </g>
    </g>
  </g>
</svg>